<svg width="95" height="95" viewBox="0 0 95 95" fill="none" xmlns="http://www.w3.org/2000/svg"><defs><mask id="${prefix}-110a" maskUnits="userSpaceOnUse" x="0" y="0" width="95" height="95">
        <path fill-rule="evenodd" clip-rule="evenodd" d="M0 10C0 4.477 4.477 0 10 0h75c5.523 0 10 4.477 10 10v75c0 5.523-4.477 10-10 10H10C4.477 95 0 90.523 0 85V10z" fill="#fff"/>
    </mask></defs>
    <path fill-rule="evenodd" clip-rule="evenodd" d="M27 33a5 5 0 015-5h30a5 5 0 015 5v30a5 5 0 01-5 5H32a5 5 0 01-5-5V33z" fill="#fff" fill-opacity=".85"/>
    
    <path fill-rule="evenodd" clip-rule="evenodd" d="M43.91 42.411a.833.833 0 011.18 0l5 5a.833.833 0 010 1.179l-5 5a.833.833 0 01-1.18-1.179l4.411-4.41-4.41-4.411a.833.833 0 010-1.179z" fill="#1C294D"/>
</svg>
