<svg width="95" height="95" viewBox="0 0 95 95" fill="none" xmlns="http://www.w3.org/2000/svg"><defs><mask id="${prefix}-2110a" maskUnits="userSpaceOnUse" x="0" y="0" width="95" height="95">
        <path fill-rule="evenodd" clip-rule="evenodd" d="M95 10c0-5.523-4.477-10-10-10H10C4.477 0 0 4.477 0 10v75c0 5.523 4.477 10 10 10h75c5.523 0 10-4.477 10-10V10z" fill="#fff"/>
    </mask></defs>
    <path fill-rule="evenodd" clip-rule="evenodd" d="M67 33a5 5 0 00-5-5H32a5 5 0 00-5 5v30a5 5 0 005 5h30a5 5 0 005-5V33z" fill="#fff" fill-opacity=".85"/>
    
    <path fill-rule="evenodd" clip-rule="evenodd" d="M50.09 41.411a.833.833 0 00-1.18 0l-5 5a.833.833 0 000 1.179l5 5a.833.833 0 001.18-1.179l-4.411-4.41 4.41-4.411a.833.833 0 000-1.179z" fill="#2A3D48" fill-opacity=".5"/>
</svg>
